<svg xmlns="http://www.w3.org/2000/svg" viewBox="0 0 100.11 36.76"><defs><style>.cls-1{fill:#ed6b1f;}.cls-2{fill:#2f7dc1;}.cls-3{fill:#21abd9;}.cls-4{fill:#fff;}</style></defs><g id="Layer_2" data-name="Layer 2"><g id="Layer_1-2" data-name="Layer 1"><path class="cls-1" d="M64.51,0,79.33,22.92S67.44,21.32,64,14.83,64.51,0,64.51,0"/><path class="cls-2" d="M75.81.83l3.51,22.09s-8.38-5.14-8.82-11.15S75.81.83,75.81.83"/><path class="cls-3" d="M70.5,11.77c.44,6,8.83,11.15,8.83,11.15L70.62,9.45a9.41,9.41,0,0,0-.12,2.32"/><polygon class="cls-4" points="0 18.53 11.39 18.53 11.39 21.98 3.94 21.98 3.94 25.85 10.34 25.85 10.34 29.12 3.94 29.12 3.94 36.49 0 36.49 0 18.53"/><path class="cls-4" d="M12.89,24.29h3.7v1.63l.05,0a4.12,4.12,0,0,1,3.54-1.81,2.87,2.87,0,0,1,.8.1v3.54a4.68,4.68,0,0,0-1-.12,4.06,4.06,0,0,0-3.3,1.44v7.39H12.89Z"/><path class="cls-4" d="M25.85,31.38a3.3,3.3,0,0,0,3.55,2.46,7.67,7.67,0,0,0,4.14-1.34v3.15a9.42,9.42,0,0,1-4.64,1.11c-4,0-6.92-2.5-6.92-6.32A6.29,6.29,0,0,1,28.38,24c3,0,5.83,2,5.83,6.08a9.91,9.91,0,0,1-.08,1.29ZM30.73,29a2.38,2.38,0,0,0-2.4-2.11A2.53,2.53,0,0,0,25.82,29Z"/><path class="cls-4" d="M39.77,31.38a3.3,3.3,0,0,0,3.54,2.46,7.64,7.64,0,0,0,4.14-1.34v3.15a9.38,9.38,0,0,1-4.63,1.11c-4,0-6.92-2.5-6.92-6.32A6.29,6.29,0,0,1,42.3,24c3,0,5.82,2,5.82,6.08a10,10,0,0,1-.07,1.29ZM44.65,29a2.38,2.38,0,0,0-2.4-2.11A2.52,2.52,0,0,0,39.74,29Z"/><path class="cls-4" d="M58.69,35.82a5.47,5.47,0,0,1-3.1.94,5.77,5.77,0,0,1-5.73-6.12A6.37,6.37,0,0,1,56.31,24a5.78,5.78,0,0,1,2.3.45l0,0v-6.9h3.78v19h-3.7v-.64Zm0-8.21a4.39,4.39,0,0,0-2-.47,3,3,0,0,0-3.05,3.32c0,1.81,1.05,3.23,2.91,3.23a4,4,0,0,0,2.1-.62Z"/><path class="cls-4" d="M71.49,24a6.39,6.39,0,1,1-6.79,6.38A6.46,6.46,0,0,1,71.49,24m0,9.5a3.13,3.13,0,1,0-3-3.12,3,3,0,0,0,3,3.12"/><path class="cls-4" d="M96.34,29.45a2.24,2.24,0,0,0-.45-1.67,1.68,1.68,0,0,0-1.29-.52,3.83,3.83,0,0,0-2.4,1,5,5,0,0,1,0,.55v7.66H88.45v-7A2.34,2.34,0,0,0,88,27.78a1.7,1.7,0,0,0-1.29-.52,4,4,0,0,0-2.39,1v8.24H80.56V24.29h3.73v1.09l0,0A5.71,5.71,0,0,1,88,24a4.08,4.08,0,0,1,3.54,1.74A6.35,6.35,0,0,1,95.84,24,4.21,4.21,0,0,1,99,25.23a4.77,4.77,0,0,1,1.12,3.6v7.66H96.34Z"/></g></g></svg>